<svg id="visual" viewBox="0 0 900 900" width="900" height="900" xmlns="http://www.w3.org/2000/svg" xmlns:xlink="http://www.w3.org/1999/xlink" version="1.1"><path d="M719 900L764 900L764 800L674 800L674 700L818 700L818 600L809 600L809 500L746 500L746 400L800 400L800 300L647 300L647 200L809 200L809 100L647 100L647 0L900 0L900 100L900 100L900 200L900 200L900 300L900 300L900 400L900 400L900 500L900 500L900 600L900 600L900 700L900 700L900 800L900 800L900 900L900 900Z" fill="#eeeeee"></path><path d="M674 900L647 900L647 800L557 800L557 700L746 700L746 600L701 600L701 500L458 500L458 400L422 400L422 300L332 300L332 200L179 200L179 100L386 100L386 0L648 0L648 100L810 100L810 200L648 200L648 300L801 300L801 400L747 400L747 500L810 500L810 600L819 600L819 700L675 700L675 800L765 800L765 900L720 900Z" fill="#f9f9f9"></path><path d="M269 900L287 900L287 800L269 800L269 700L125 700L125 600L197 600L197 500L53 500L53 400L116 400L116 300L62 300L62 200L35 200L35 100L206 100L206 0L387 0L387 100L180 100L180 200L333 200L333 300L423 300L423 400L459 400L459 500L702 500L702 600L747 600L747 700L558 700L558 800L648 800L648 900L675 900Z" fill="#ffffff"></path><path d="M0 900L0 900L0 800L0 800L0 700L0 700L0 600L0 600L0 500L0 500L0 400L0 400L0 300L0 300L0 200L0 200L0 100L0 100L0 0L207 0L207 100L36 100L36 200L63 200L63 300L117 300L117 400L54 400L54 500L198 500L198 600L126 600L126 700L270 700L270 800L288 800L288 900L270 900Z" fill="#ffffff"></path></svg>