<svg id="visual" viewBox="0 0 900 900" width="900" height="900" xmlns="http://www.w3.org/2000/svg" xmlns:xlink="http://www.w3.org/1999/xlink" version="1.1"><path d="M719 900L665 900L665 771L647 771L647 643L512 643L512 514L683 514L683 386L692 386L692 257L755 257L755 129L719 129L719 0L900 0L900 129L900 129L900 257L900 257L900 386L900 386L900 514L900 514L900 643L900 643L900 771L900 771L900 900L900 900Z" fill="#eeeeee"></path><path d="M566 900L494 900L494 771L557 771L557 643L449 643L449 514L557 514L557 386L575 386L575 257L683 257L683 129L620 129L620 0L720 0L720 129L756 129L756 257L693 257L693 386L684 386L684 514L513 514L513 643L648 643L648 771L666 771L666 900L720 900Z" fill="#f5f5f5"></path><path d="M521 900L413 900L413 771L449 771L449 643L377 643L377 514L440 514L440 386L494 386L494 257L629 257L629 129L521 129L521 0L621 0L621 129L684 129L684 257L576 257L576 386L558 386L558 514L450 514L450 643L558 643L558 771L495 771L495 900L567 900Z" fill="#fcfcfc"></path><path d="M377 900L224 900L224 771L359 771L359 643L287 643L287 514L314 514L314 386L359 386L359 257L476 257L476 129L287 129L287 0L522 0L522 129L630 129L630 257L495 257L495 386L441 386L441 514L378 514L378 643L450 643L450 771L414 771L414 900L522 900Z" fill="#ffffff"></path><path d="M143 900L53 900L53 771L116 771L116 643L125 643L125 514L98 514L98 386L143 386L143 257L116 257L116 129L44 129L44 0L288 0L288 129L477 129L477 257L360 257L360 386L315 386L315 514L288 514L288 643L360 643L360 771L225 771L225 900L378 900Z" fill="#ffffff"></path><path d="M0 900L0 900L0 771L0 771L0 643L0 643L0 514L0 514L0 386L0 386L0 257L0 257L0 129L0 129L0 0L45 0L45 129L117 129L117 257L144 257L144 386L99 386L99 514L126 514L126 643L117 643L117 771L54 771L54 900L144 900Z" fill="#ffffff"></path></svg>