<svg id="visual" viewBox="0 0 900 900" width="900" height="900" xmlns="http://www.w3.org/2000/svg" xmlns:xlink="http://www.w3.org/1999/xlink" version="1.1"><path d="M638 900L836 900L836 847L845 847L845 794L809 794L809 741L872 741L872 688L836 688L836 635L638 635L638 582L890 582L890 529L800 529L800 476L494 476L494 424L890 424L890 371L863 371L863 318L809 318L809 265L728 265L728 212L638 212L638 159L602 159L602 106L449 106L449 53L818 53L818 0L900 0L900 53L900 53L900 106L900 106L900 159L900 159L900 212L900 212L900 265L900 265L900 318L900 318L900 371L900 371L900 424L900 424L900 476L900 476L900 529L900 529L900 582L900 582L900 635L900 635L900 688L900 688L900 741L900 741L900 794L900 794L900 847L900 847L900 900L900 900Z" fill="#eeeeee"></path><path d="M557 900L818 900L818 847L845 847L845 794L791 794L791 741L791 741L791 688L773 688L773 635L566 635L566 582L818 582L818 529L764 529L764 476L467 476L467 424L818 424L818 371L845 371L845 318L737 318L737 265L674 265L674 212L611 212L611 159L521 159L521 106L395 106L395 53L746 53L746 0L819 0L819 53L450 53L450 106L603 106L603 159L639 159L639 212L729 212L729 265L810 265L810 318L864 318L864 371L891 371L891 424L495 424L495 476L801 476L801 529L891 529L891 582L639 582L639 635L837 635L837 688L873 688L873 741L810 741L810 794L846 794L846 847L837 847L837 900L639 900Z" fill="#f6f6f6"></path><path d="M548 900L818 900L818 847L809 847L809 794L728 794L728 741L728 741L728 688L746 688L746 635L548 635L548 582L746 582L746 529L728 529L728 476L440 476L440 424L746 424L746 371L818 371L818 318L719 318L719 265L629 265L629 212L566 212L566 159L485 159L485 106L323 106L323 53L692 53L692 0L747 0L747 53L396 53L396 106L522 106L522 159L612 159L612 212L675 212L675 265L738 265L738 318L846 318L846 371L819 371L819 424L468 424L468 476L765 476L765 529L819 529L819 582L567 582L567 635L774 635L774 688L792 688L792 741L792 741L792 794L846 794L846 847L819 847L819 900L558 900Z" fill="#fdfdfd"></path><path d="M467 900L746 900L746 847L719 847L719 794L629 794L629 741L683 741L683 688L647 688L647 635L431 635L431 582L665 582L665 529L611 529L611 476L440 476L440 424L728 424L728 371L818 371L818 318L629 318L629 265L584 265L584 212L548 212L548 159L404 159L404 106L314 106L314 53L692 53L692 0L693 0L693 53L324 53L324 106L486 106L486 159L567 159L567 212L630 212L630 265L720 265L720 318L819 318L819 371L747 371L747 424L441 424L441 476L729 476L729 529L747 529L747 582L549 582L549 635L747 635L747 688L729 688L729 741L729 741L729 794L810 794L810 847L819 847L819 900L549 900Z" fill="#ffffff"></path><path d="M467 900L665 900L665 847L629 847L629 794L584 794L584 741L593 741L593 688L593 688L593 635L422 635L422 582L584 582L584 529L575 529L575 476L395 476L395 424L701 424L701 371L773 371L773 318L602 318L602 265L584 265L584 212L467 212L467 159L395 159L395 106L215 106L215 53L647 53L647 0L693 0L693 53L315 53L315 106L405 106L405 159L549 159L549 212L585 212L585 265L630 265L630 318L819 318L819 371L729 371L729 424L441 424L441 476L612 476L612 529L666 529L666 582L432 582L432 635L648 635L648 688L684 688L684 741L630 741L630 794L720 794L720 847L747 847L747 900L468 900Z" fill="#ffffff"></path><path d="M458 900L503 900L503 847L620 847L620 794L467 794L467 741L539 741L539 688L458 688L458 635L323 635L323 582L467 582L467 529L440 529L440 476L395 476L395 424L557 424L557 371L629 371L629 318L602 318L602 265L566 265L566 212L449 212L449 159L395 159L395 106L170 106L170 53L638 53L638 0L648 0L648 53L216 53L216 106L396 106L396 159L468 159L468 212L585 212L585 265L603 265L603 318L774 318L774 371L702 371L702 424L396 424L396 476L576 476L576 529L585 529L585 582L423 582L423 635L594 635L594 688L594 688L594 741L585 741L585 794L630 794L630 847L666 847L666 900L468 900Z" fill="#ffffff"></path><path d="M359 900L395 900L395 847L539 847L539 794L422 794L422 741L530 741L530 688L368 688L368 635L296 635L296 582L422 582L422 529L431 529L431 476L305 476L305 424L485 424L485 371L539 371L539 318L530 318L530 265L530 265L530 212L359 212L359 159L296 159L296 106L152 106L152 53L629 53L629 0L639 0L639 53L171 53L171 106L396 106L396 159L450 159L450 212L567 212L567 265L603 265L603 318L630 318L630 371L558 371L558 424L396 424L396 476L441 476L441 529L468 529L468 582L324 582L324 635L459 635L459 688L540 688L540 741L468 741L468 794L621 794L621 847L504 847L504 900L459 900Z" fill="#ffffff"></path><path d="M296 900L206 900L206 847L278 847L278 794L314 794L314 741L143 741L143 688L224 688L224 635L215 635L215 582L107 582L107 529L161 529L161 476L170 476L170 424L314 424L314 371L278 371L278 318L314 318L314 265L314 265L314 212L359 212L359 159L296 159L296 106L152 106L152 53L287 53L287 0L630 0L630 53L153 53L153 106L297 106L297 159L360 159L360 212L531 212L531 265L531 265L531 318L540 318L540 371L486 371L486 424L306 424L306 476L432 476L432 529L423 529L423 582L297 582L297 635L369 635L369 688L531 688L531 741L423 741L423 794L540 794L540 847L396 847L396 900L360 900Z" fill="#ffffff"></path><path d="M287 900L197 900L197 847L269 847L269 794L269 794L269 741L116 741L116 688L206 688L206 635L206 635L206 582L71 582L71 529L125 529L125 476L80 476L80 424L260 424L260 371L269 371L269 318L278 318L278 265L233 265L233 212L296 212L296 159L296 159L296 106L107 106L107 53L242 53L242 0L288 0L288 53L153 53L153 106L297 106L297 159L360 159L360 212L315 212L315 265L315 265L315 318L279 318L279 371L315 371L315 424L171 424L171 476L162 476L162 529L108 529L108 582L216 582L216 635L225 635L225 688L144 688L144 741L315 741L315 794L279 794L279 847L207 847L207 900L297 900Z" fill="#ffffff"></path><path d="M251 900L143 900L143 847L242 847L242 794L197 794L197 741L116 741L116 688L170 688L170 635L179 635L179 582L8 582L8 529L62 529L62 476L53 476L53 424L197 424L197 371L260 371L260 318L224 318L224 265L161 265L161 212L224 212L224 159L278 159L278 106L80 106L80 53L179 53L179 0L243 0L243 53L108 53L108 106L297 106L297 159L297 159L297 212L234 212L234 265L279 265L279 318L270 318L270 371L261 371L261 424L81 424L81 476L126 476L126 529L72 529L72 582L207 582L207 635L207 635L207 688L117 688L117 741L270 741L270 794L270 794L270 847L198 847L198 900L288 900Z" fill="#fdfdfd"></path><path d="M116 900L26 900L26 847L116 847L116 794L107 794L107 741L44 741L44 688L62 688L62 635L35 635L35 582L8 582L8 529L62 529L62 476L35 476L35 424L62 424L62 371L143 371L143 318L17 318L17 265L53 265L53 212L26 212L26 159L125 159L125 106L44 106L44 53L8 53L8 0L180 0L180 53L81 53L81 106L279 106L279 159L225 159L225 212L162 212L162 265L225 265L225 318L261 318L261 371L198 371L198 424L54 424L54 476L63 476L63 529L9 529L9 582L180 582L180 635L171 635L171 688L117 688L117 741L198 741L198 794L243 794L243 847L144 847L144 900L252 900Z" fill="#f6f6f6"></path><path d="M0 900L0 900L0 847L0 847L0 794L0 794L0 741L0 741L0 688L0 688L0 635L0 635L0 582L0 582L0 529L0 529L0 476L0 476L0 424L0 424L0 371L0 371L0 318L0 318L0 265L0 265L0 212L0 212L0 159L0 159L0 106L0 106L0 53L0 53L0 0L9 0L9 53L45 53L45 106L126 106L126 159L27 159L27 212L54 212L54 265L18 265L18 318L144 318L144 371L63 371L63 424L36 424L36 476L63 476L63 529L9 529L9 582L36 582L36 635L63 635L63 688L45 688L45 741L108 741L108 794L117 794L117 847L27 847L27 900L117 900Z" fill="#eeeeee"></path></svg>