<svg id="visual" viewBox="0 0 540 960" width="540" height="960" xmlns="http://www.w3.org/2000/svg" xmlns:xlink="http://www.w3.org/1999/xlink" version="1.1"><path d="M496 960L528 960L528 918L496 918L496 877L528 877L528 835L539 835L539 793L528 793L528 751L507 751L507 710L528 710L528 668L507 668L507 626L528 626L528 584L523 584L523 543L507 543L507 501L539 501L539 459L517 459L517 417L507 417L507 376L534 376L534 334L528 334L528 292L507 292L507 250L517 250L517 209L517 209L517 167L507 167L507 125L501 125L501 83L496 83L496 42L512 42L512 0L540 0L540 42L540 42L540 83L540 83L540 125L540 125L540 167L540 167L540 209L540 209L540 250L540 250L540 292L540 292L540 334L540 334L540 376L540 376L540 417L540 417L540 459L540 459L540 501L540 501L540 543L540 543L540 584L540 584L540 626L540 626L540 668L540 668L540 710L540 710L540 751L540 751L540 793L540 793L540 835L540 835L540 877L540 877L540 918L540 918L540 960L540 960Z" fill="#eeeeee"></path><path d="M447 960L528 960L528 918L447 918L447 877L496 877L496 835L523 835L523 793L474 793L474 751L496 751L496 710L480 710L480 668L458 668L458 626L480 626L480 584L458 584L458 543L463 543L463 501L496 501L496 459L447 459L447 417L442 417L442 376L512 376L512 334L463 334L463 292L480 292L480 250L474 250L474 209L458 209L458 167L453 167L453 125L490 125L490 83L453 83L453 42L474 42L474 0L513 0L513 42L497 42L497 83L502 83L502 125L508 125L508 167L518 167L518 209L518 209L518 250L508 250L508 292L529 292L529 334L535 334L535 376L508 376L508 417L518 417L518 459L540 459L540 501L508 501L508 543L524 543L524 584L529 584L529 626L508 626L508 668L529 668L529 710L508 710L508 751L529 751L529 793L540 793L540 835L529 835L529 877L497 877L497 918L529 918L529 960L497 960Z" fill="#f6f6f6"></path><path d="M372 960L480 960L480 918L366 918L366 877L415 877L415 835L463 835L463 793L426 793L426 751L420 751L420 710L409 710L409 668L431 668L431 626L474 626L474 584L415 584L415 543L420 543L420 501L415 501L415 459L366 459L366 417L426 417L426 376L512 376L512 334L463 334L463 292L426 292L426 250L404 250L404 209L431 209L431 167L393 167L393 125L474 125L474 83L436 83L436 42L404 42L404 0L475 0L475 42L454 42L454 83L491 83L491 125L454 125L454 167L459 167L459 209L475 209L475 250L481 250L481 292L464 292L464 334L513 334L513 376L443 376L443 417L448 417L448 459L497 459L497 501L464 501L464 543L459 543L459 584L481 584L481 626L459 626L459 668L481 668L481 710L497 710L497 751L475 751L475 793L524 793L524 835L497 835L497 877L448 877L448 918L529 918L529 960L448 960Z" fill="#fdfdfd"></path><path d="M334 960L447 960L447 918L345 918L345 877L415 877L415 835L453 835L453 793L382 793L382 751L415 751L415 710L366 710L366 668L415 668L415 626L474 626L474 584L415 584L415 543L399 543L399 501L393 501L393 459L334 459L334 417L420 417L420 376L496 376L496 334L442 334L442 292L420 292L420 250L393 250L393 209L388 209L388 167L355 167L355 125L474 125L474 83L415 83L415 42L377 42L377 0L405 0L405 42L437 42L437 83L475 83L475 125L394 125L394 167L432 167L432 209L405 209L405 250L427 250L427 292L464 292L464 334L513 334L513 376L427 376L427 417L367 417L367 459L416 459L416 501L421 501L421 543L416 543L416 584L475 584L475 626L432 626L432 668L410 668L410 710L421 710L421 751L427 751L427 793L464 793L464 835L416 835L416 877L367 877L367 918L481 918L481 960L373 960Z" fill="#ffffff"></path><path d="M328 960L377 960L377 918L291 918L291 877L334 877L334 835L453 835L453 793L312 793L312 751L361 751L361 710L339 710L339 668L393 668L393 626L469 626L469 584L345 584L345 543L388 543L388 501L393 501L393 459L285 459L285 417L355 417L355 376L415 376L415 334L372 334L372 292L377 292L377 250L350 250L350 209L312 209L312 167L274 167L274 125L404 125L404 83L415 83L415 42L350 42L350 0L378 0L378 42L416 42L416 83L475 83L475 125L356 125L356 167L389 167L389 209L394 209L394 250L421 250L421 292L443 292L443 334L497 334L497 376L421 376L421 417L335 417L335 459L394 459L394 501L400 501L400 543L416 543L416 584L475 584L475 626L416 626L416 668L367 668L367 710L416 710L416 751L383 751L383 793L454 793L454 835L416 835L416 877L346 877L346 918L448 918L448 960L335 960Z" fill="#ffffff"></path><path d="M301 960L107 960L107 918L210 918L210 877L134 877L134 835L377 835L377 793L199 793L199 751L204 751L204 710L318 710L318 668L247 668L247 626L318 626L318 584L237 584L237 543L291 543L291 501L253 501L253 459L177 459L177 417L237 417L237 376L318 376L318 334L237 334L237 292L269 292L269 250L247 250L247 209L199 209L199 167L145 167L145 125L237 125L237 83L285 83L285 42L328 42L328 0L351 0L351 42L416 42L416 83L405 83L405 125L275 125L275 167L313 167L313 209L351 209L351 250L378 250L378 292L373 292L373 334L416 334L416 376L356 376L356 417L286 417L286 459L394 459L394 501L389 501L389 543L346 543L346 584L470 584L470 626L394 626L394 668L340 668L340 710L362 710L362 751L313 751L313 793L454 793L454 835L335 835L335 877L292 877L292 918L378 918L378 960L329 960Z" fill="#ffffff"></path><path d="M291 960L96 960L96 918L210 918L210 877L129 877L129 835L366 835L366 793L134 793L134 751L172 751L172 710L296 710L296 668L199 668L199 626L274 626L274 584L231 584L231 543L242 543L242 501L183 501L183 459L145 459L145 417L226 417L226 376L264 376L264 334L210 334L210 292L220 292L220 250L188 250L188 209L150 209L150 167L118 167L118 125L177 125L177 83L274 83L274 42L280 42L280 0L329 0L329 42L286 42L286 83L238 83L238 125L146 125L146 167L200 167L200 209L248 209L248 250L270 250L270 292L238 292L238 334L319 334L319 376L238 376L238 417L178 417L178 459L254 459L254 501L292 501L292 543L238 543L238 584L319 584L319 626L248 626L248 668L319 668L319 710L205 710L205 751L200 751L200 793L378 793L378 835L135 835L135 877L211 877L211 918L108 918L108 960L302 960Z" fill="#ffffff"></path><path d="M139 960L96 960L96 918L129 918L129 877L112 877L112 835L237 835L237 793L96 793L96 751L156 751L156 710L145 710L145 668L107 668L107 626L112 626L112 584L172 584L172 543L107 543L107 501L172 501L172 459L134 459L134 417L172 417L172 376L112 376L112 334L112 334L112 292L58 292L58 250L145 250L145 209L53 209L53 167L91 167L91 125L166 125L166 83L80 83L80 42L166 42L166 0L281 0L281 42L275 42L275 83L178 83L178 125L119 125L119 167L151 167L151 209L189 209L189 250L221 250L221 292L211 292L211 334L265 334L265 376L227 376L227 417L146 417L146 459L184 459L184 501L243 501L243 543L232 543L232 584L275 584L275 626L200 626L200 668L297 668L297 710L173 710L173 751L135 751L135 793L367 793L367 835L130 835L130 877L211 877L211 918L97 918L97 960L292 960Z" fill="#ffffff"></path><path d="M64 960L91 960L91 918L48 918L48 877L96 877L96 835L118 835L118 793L48 793L48 751L69 751L69 710L80 710L80 668L75 668L75 626L48 626L48 584L58 584L58 543L85 543L85 501L58 501L58 459L31 459L31 417L107 417L107 376L112 376L112 334L75 334L75 292L37 292L37 250L75 250L75 209L37 209L37 167L64 167L64 125L80 125L80 83L58 83L58 42L96 42L96 0L167 0L167 42L81 42L81 83L167 83L167 125L92 125L92 167L54 167L54 209L146 209L146 250L59 250L59 292L113 292L113 334L113 334L113 376L173 376L173 417L135 417L135 459L173 459L173 501L108 501L108 543L173 543L173 584L113 584L113 626L108 626L108 668L146 668L146 710L157 710L157 751L97 751L97 793L238 793L238 835L113 835L113 877L130 877L130 918L97 918L97 960L140 960Z" fill="#ffffff"></path><path d="M42 960L91 960L91 918L15 918L15 877L58 877L58 835L96 835L96 793L37 793L37 751L48 751L48 710L48 710L48 668L48 668L48 626L10 626L10 584L48 584L48 543L37 543L37 501L48 501L48 459L10 459L10 417L58 417L58 376L64 376L64 334L48 334L48 292L31 292L31 250L64 250L64 209L21 209L21 167L53 167L53 125L75 125L75 83L58 83L58 42L80 42L80 0L97 0L97 42L59 42L59 83L81 83L81 125L65 125L65 167L38 167L38 209L76 209L76 250L38 250L38 292L76 292L76 334L113 334L113 376L108 376L108 417L32 417L32 459L59 459L59 501L86 501L86 543L59 543L59 584L49 584L49 626L76 626L76 668L81 668L81 710L70 710L70 751L49 751L49 793L119 793L119 835L97 835L97 877L49 877L49 918L92 918L92 960L65 960Z" fill="#fdfdfd"></path><path d="M31 960L48 960L48 918L4 918L4 877L42 877L42 835L42 835L42 793L15 793L15 751L42 751L42 710L31 710L31 668L0 668L0 626L10 626L10 584L10 584L10 543L0 543L0 501L37 501L37 459L10 459L10 417L10 417L10 376L58 376L58 334L48 334L48 292L15 292L15 250L10 250L10 209L0 209L0 167L4 167L4 125L48 125L48 83L48 83L48 42L37 42L37 0L81 0L81 42L59 42L59 83L76 83L76 125L54 125L54 167L22 167L22 209L65 209L65 250L32 250L32 292L49 292L49 334L65 334L65 376L59 376L59 417L11 417L11 459L49 459L49 501L38 501L38 543L49 543L49 584L11 584L11 626L49 626L49 668L49 668L49 710L49 710L49 751L38 751L38 793L97 793L97 835L59 835L59 877L16 877L16 918L92 918L92 960L43 960Z" fill="#f6f6f6"></path><path d="M0 960L0 960L0 918L0 918L0 877L0 877L0 835L0 835L0 793L0 793L0 751L0 751L0 710L0 710L0 668L0 668L0 626L0 626L0 584L0 584L0 543L0 543L0 501L0 501L0 459L0 459L0 417L0 417L0 376L0 376L0 334L0 334L0 292L0 292L0 250L0 250L0 209L0 209L0 167L0 167L0 125L0 125L0 83L0 83L0 42L0 42L0 0L38 0L38 42L49 42L49 83L49 83L49 125L5 125L5 167L0 167L0 209L11 209L11 250L16 250L16 292L49 292L49 334L59 334L59 376L11 376L11 417L11 417L11 459L38 459L38 501L0 501L0 543L11 543L11 584L11 584L11 626L0 626L0 668L32 668L32 710L43 710L43 751L16 751L16 793L43 793L43 835L43 835L43 877L5 877L5 918L49 918L49 960L32 960Z" fill="#eeeeee"></path></svg>