<svg id="visual" viewBox="0 0 540 960" width="540" height="960" xmlns="http://www.w3.org/2000/svg" xmlns:xlink="http://www.w3.org/1999/xlink" version="1.1"><path d="M0 68L60 68L60 222L120 222L120 49L180 49L180 78L240 78L240 49L300 49L300 203L360 203L360 78L420 78L420 126L480 126L480 183L540 183L540 87L540 0L540 0L480 0L480 0L420 0L420 0L360 0L360 0L300 0L300 0L240 0L240 0L180 0L180 0L120 0L120 0L60 0L60 0L0 0Z" fill="#eeeeee"></path><path d="M0 251L60 251L60 587L120 587L120 567L180 567L180 404L240 404L240 145L300 145L300 462L360 462L360 452L420 452L420 356L480 356L480 759L540 759L540 395L540 85L540 181L480 181L480 124L420 124L420 76L360 76L360 201L300 201L300 47L240 47L240 76L180 76L180 47L120 47L120 220L60 220L60 66L0 66Z" fill="#f9f9f9"></path><path d="M0 884L60 884L60 798L120 798L120 683L180 683L180 596L240 596L240 596L300 596L300 731L360 731L360 875L420 875L420 683L480 683L480 875L540 875L540 692L540 393L540 757L480 757L480 354L420 354L420 450L360 450L360 460L300 460L300 143L240 143L240 402L180 402L180 565L120 565L120 585L60 585L60 249L0 249Z" fill="#ffffff"></path><path d="M0 961L60 961L60 961L120 961L120 961L180 961L180 961L240 961L240 961L300 961L300 961L360 961L360 961L420 961L420 961L480 961L480 961L540 961L540 961L540 690L540 873L480 873L480 681L420 681L420 873L360 873L360 729L300 729L300 594L240 594L240 594L180 594L180 681L120 681L120 796L60 796L60 882L0 882Z" fill="#ffffff"></path></svg>