<svg id="visual" viewBox="0 0 900 900" width="900" height="900" xmlns="http://www.w3.org/2000/svg" xmlns:xlink="http://www.w3.org/1999/xlink" version="1.1"><path d="M0 73L150 73L150 109L300 109L300 100L450 100L450 118L600 118L600 109L750 109L750 109L900 109L900 64L900 0L900 0L750 0L750 0L600 0L600 0L450 0L450 0L300 0L300 0L150 0L150 0L0 0Z" fill="#dde7f0"></path><path d="M0 181L150 181L150 334L300 334L300 208L450 208L450 199L600 199L600 226L750 226L750 226L900 226L900 235L900 62L900 107L750 107L750 107L600 107L600 116L450 116L450 98L300 98L300 107L150 107L150 71L0 71Z" fill="#e5edf3"></path><path d="M0 649L150 649L150 478L300 478L300 415L450 415L450 559L600 559L600 442L750 442L750 541L900 541L900 640L900 233L900 224L750 224L750 224L600 224L600 197L450 197L450 206L300 206L300 332L150 332L150 179L0 179Z" fill="#eef3f7"></path><path d="M0 820L150 820L150 757L300 757L300 739L450 739L450 820L600 820L600 838L750 838L750 820L900 820L900 802L900 638L900 539L750 539L750 440L600 440L600 557L450 557L450 413L300 413L300 476L150 476L150 647L0 647Z" fill="#f6f9fb"></path><path d="M0 901L150 901L150 901L300 901L300 901L450 901L450 901L600 901L600 901L750 901L750 901L900 901L900 901L900 800L900 818L750 818L750 836L600 836L600 818L450 818L450 737L300 737L300 755L150 755L150 818L0 818Z" fill="#ffffff"></path></svg>