<svg id="visual" viewBox="0 0 960 540" width="960" height="540" xmlns="http://www.w3.org/2000/svg" xmlns:xlink="http://www.w3.org/1999/xlink" version="1.1"><path d="M0 33L160 33L160 71L320 71L320 66L480 66L480 28L640 28L640 55L800 55L800 33L960 33L960 50L960 0L960 0L800 0L800 0L640 0L640 0L480 0L480 0L320 0L320 0L160 0L160 0L0 0Z" fill="#6ba3d0"></path><path d="M0 71L160 71L160 109L320 109L320 93L480 93L480 93L640 93L640 82L800 82L800 87L960 87L960 109L960 48L960 31L800 31L800 53L640 53L640 26L480 26L480 64L320 64L320 69L160 69L160 31L0 31Z" fill="#7fadd2"></path><path d="M0 158L160 158L160 195L320 195L320 190L480 190L480 282L640 282L640 239L800 239L800 179L960 179L960 179L960 107L960 85L800 85L800 80L640 80L640 91L480 91L480 91L320 91L320 107L160 107L160 69L0 69Z" fill="#92b6d5"></path><path d="M0 384L160 384L160 384L320 384L320 395L480 395L480 390L640 390L640 363L800 363L800 390L960 390L960 368L960 177L960 177L800 177L800 237L640 237L640 280L480 280L480 188L320 188L320 193L160 193L160 156L0 156Z" fill="#a4c0d7"></path><path d="M0 471L160 471L160 455L320 455L320 465L480 465L480 482L640 482L640 498L800 498L800 444L960 444L960 449L960 366L960 388L800 388L800 361L640 361L640 388L480 388L480 393L320 393L320 382L160 382L160 382L0 382Z" fill="#b5c9da"></path><path d="M0 541L160 541L160 541L320 541L320 541L480 541L480 541L640 541L640 541L800 541L800 541L960 541L960 541L960 447L960 442L800 442L800 496L640 496L640 480L480 480L480 463L320 463L320 453L160 453L160 469L0 469Z" fill="#c7d3dd"></path></svg>