<svg id="visual" viewBox="0 0 540 960" width="540" height="960" xmlns="http://www.w3.org/2000/svg" xmlns:xlink="http://www.w3.org/1999/xlink" version="1.1"><path d="M0 78L90 78L90 116L180 116L180 107L270 107L270 126L360 126L360 116L450 116L450 116L540 116L540 68L540 0L540 0L450 0L450 0L360 0L360 0L270 0L270 0L180 0L180 0L90 0L90 0L0 0Z" fill="#ffffff"></path><path d="M0 193L90 193L90 356L180 356L180 222L270 222L270 212L360 212L360 241L450 241L450 241L540 241L540 251L540 66L540 114L450 114L450 114L360 114L360 124L270 124L270 105L180 105L180 114L90 114L90 76L0 76Z" fill="#f6f9fb"></path><path d="M0 692L90 692L90 510L180 510L180 443L270 443L270 596L360 596L360 471L450 471L450 577L540 577L540 683L540 249L540 239L450 239L450 239L360 239L360 210L270 210L270 220L180 220L180 354L90 354L90 191L0 191Z" fill="#eef3f7"></path><path d="M0 875L90 875L90 807L180 807L180 788L270 788L270 875L360 875L360 894L450 894L450 875L540 875L540 855L540 681L540 575L450 575L450 469L360 469L360 594L270 594L270 441L180 441L180 508L90 508L90 690L0 690Z" fill="#e5edf3"></path><path d="M0 961L90 961L90 961L180 961L180 961L270 961L270 961L360 961L360 961L450 961L450 961L540 961L540 961L540 853L540 873L450 873L450 892L360 892L360 873L270 873L270 786L180 786L180 805L90 805L90 873L0 873Z" fill="#dde7f0"></path></svg>