<svg id="visual" viewBox="0 0 540 960" width="540" height="960" xmlns="http://www.w3.org/2000/svg" xmlns:xlink="http://www.w3.org/1999/xlink" version="1.1"><path d="M0 39L23 39L23 30L47 30L47 49L70 49L70 20L94 20L94 39L117 39L117 20L141 20L141 49L164 49L164 49L188 49L188 20L211 20L211 39L235 39L235 49L258 49L258 30L282 30L282 20L305 20L305 20L329 20L329 49L352 49L352 20L376 20L376 49L399 49L399 20L423 20L423 20L446 20L446 49L470 49L470 39L493 39L493 49L517 49L517 30L540 30L540 39L540 0L540 0L517 0L517 0L493 0L493 0L470 0L470 0L446 0L446 0L423 0L423 0L399 0L399 0L376 0L376 0L352 0L352 0L329 0L329 0L305 0L305 0L282 0L282 0L258 0L258 0L235 0L235 0L211 0L211 0L188 0L188 0L164 0L164 0L141 0L141 0L117 0L117 0L94 0L94 0L70 0L70 0L47 0L47 0L23 0L23 0L0 0Z" fill="#4e8ec2"></path><path d="M0 116L23 116L23 183L47 183L47 126L70 126L70 87L94 87L94 164L117 164L117 126L141 126L141 212L164 212L164 174L188 174L188 145L211 145L211 135L235 135L235 135L258 135L258 164L282 164L282 107L305 107L305 135L329 135L329 145L352 145L352 174L376 174L376 174L399 174L399 174L423 174L423 116L446 116L446 155L470 155L470 164L493 164L493 116L517 116L517 193L540 193L540 126L540 37L540 28L517 28L517 47L493 47L493 37L470 37L470 47L446 47L446 18L423 18L423 18L399 18L399 47L376 47L376 18L352 18L352 47L329 47L329 18L305 18L305 18L282 18L282 28L258 28L258 47L235 47L235 37L211 37L211 18L188 18L188 47L164 47L164 47L141 47L141 18L117 18L117 37L94 37L94 18L70 18L70 47L47 47L47 28L23 28L23 37L0 37Z" fill="#5692c3"></path><path d="M0 183L23 183L23 260L47 260L47 212L70 212L70 164L94 164L94 260L117 260L117 222L141 222L141 279L164 279L164 270L188 270L188 203L211 203L211 183L235 183L235 193L258 193L258 231L282 231L282 203L305 203L305 212L329 212L329 222L352 222L352 222L376 222L376 222L399 222L399 222L423 222L423 155L446 155L446 203L470 203L470 241L493 241L493 203L517 203L517 279L540 279L540 174L540 124L540 191L517 191L517 114L493 114L493 162L470 162L470 153L446 153L446 114L423 114L423 172L399 172L399 172L376 172L376 172L352 172L352 143L329 143L329 133L305 133L305 105L282 105L282 162L258 162L258 133L235 133L235 133L211 133L211 143L188 143L188 172L164 172L164 210L141 210L141 124L117 124L117 162L94 162L94 85L70 85L70 124L47 124L47 181L23 181L23 114L0 114Z" fill="#5e96c5"></path><path d="M0 212L23 212L23 318L47 318L47 289L70 289L70 212L94 212L94 289L117 289L117 270L141 270L141 308L164 308L164 318L188 318L188 270L211 270L211 231L235 231L235 251L258 251L258 308L282 308L282 241L305 241L305 270L329 270L329 289L352 289L352 270L376 270L376 251L399 251L399 279L423 279L423 222L446 222L446 260L470 260L470 308L493 308L493 270L517 270L517 308L540 308L540 222L540 172L540 277L517 277L517 201L493 201L493 239L470 239L470 201L446 201L446 153L423 153L423 220L399 220L399 220L376 220L376 220L352 220L352 220L329 220L329 210L305 210L305 201L282 201L282 229L258 229L258 191L235 191L235 181L211 181L211 201L188 201L188 268L164 268L164 277L141 277L141 220L117 220L117 258L94 258L94 162L70 162L70 210L47 210L47 258L23 258L23 181L0 181Z" fill="#669bc6"></path><path d="M0 327L23 327L23 366L47 366L47 347L70 347L70 327L94 327L94 337L117 337L117 347L141 347L141 356L164 356L164 423L188 423L188 347L211 347L211 308L235 308L235 347L258 347L258 404L282 404L282 327L305 327L305 356L329 356L329 347L352 347L352 414L376 414L376 347L399 347L399 337L423 337L423 279L446 279L446 337L470 337L470 395L493 395L493 356L517 356L517 375L540 375L540 299L540 220L540 306L517 306L517 268L493 268L493 306L470 306L470 258L446 258L446 220L423 220L423 277L399 277L399 249L376 249L376 268L352 268L352 287L329 287L329 268L305 268L305 239L282 239L282 306L258 306L258 249L235 249L235 229L211 229L211 268L188 268L188 316L164 316L164 306L141 306L141 268L117 268L117 287L94 287L94 210L70 210L70 287L47 287L47 316L23 316L23 210L0 210Z" fill="#6e9fc7"></path><path d="M0 471L23 471L23 500L47 500L47 510L70 510L70 558L94 558L94 462L117 462L117 471L141 471L141 577L164 577L164 654L188 654L188 577L211 577L211 500L235 500L235 567L258 567L258 567L282 567L282 491L305 491L305 510L329 510L329 519L352 519L352 577L376 577L376 558L399 558L399 481L423 481L423 567L446 567L446 548L470 548L470 519L493 519L493 529L517 529L517 606L540 606L540 567L540 297L540 373L517 373L517 354L493 354L493 393L470 393L470 335L446 335L446 277L423 277L423 335L399 335L399 345L376 345L376 412L352 412L352 345L329 345L329 354L305 354L305 325L282 325L282 402L258 402L258 345L235 345L235 306L211 306L211 345L188 345L188 421L164 421L164 354L141 354L141 345L117 345L117 335L94 335L94 325L70 325L70 345L47 345L47 364L23 364L23 325L0 325Z" fill="#75a3c8"></path><path d="M0 519L23 519L23 558L47 558L47 577L70 577L70 615L94 615L94 548L117 548L117 558L141 558L141 635L164 635L164 721L188 721L188 635L211 635L211 577L235 577L235 644L258 644L258 644L282 644L282 567L305 567L305 587L329 587L329 587L352 587L352 615L376 615L376 635L399 635L399 519L423 519L423 644L446 644L446 625L470 625L470 596L493 596L493 606L517 606L517 663L540 663L540 625L540 565L540 604L517 604L517 527L493 527L493 517L470 517L470 546L446 546L446 565L423 565L423 479L399 479L399 556L376 556L376 575L352 575L352 517L329 517L329 508L305 508L305 489L282 489L282 565L258 565L258 565L235 565L235 498L211 498L211 575L188 575L188 652L164 652L164 575L141 575L141 469L117 469L117 460L94 460L94 556L70 556L70 508L47 508L47 498L23 498L23 469L0 469Z" fill="#7da7ca"></path><path d="M0 548L23 548L23 596L47 596L47 606L70 606L70 663L94 663L94 587L117 587L117 615L141 615L141 692L164 692L164 769L188 769L188 663L211 663L211 615L235 615L235 692L258 692L258 673L282 673L282 625L305 625L305 615L329 615L329 615L352 615L352 663L376 663L376 663L399 663L399 577L423 577L423 683L446 683L446 683L470 683L470 654L493 654L493 663L517 663L517 721L540 721L540 673L540 623L540 661L517 661L517 604L493 604L493 594L470 594L470 623L446 623L446 642L423 642L423 517L399 517L399 633L376 633L376 613L352 613L352 585L329 585L329 585L305 585L305 565L282 565L282 642L258 642L258 642L235 642L235 575L211 575L211 633L188 633L188 719L164 719L164 633L141 633L141 556L117 556L117 546L94 546L94 613L70 613L70 575L47 575L47 556L23 556L23 517L0 517Z" fill="#84abcb"></path><path d="M0 606L23 606L23 663L47 663L47 635L70 635L70 702L94 702L94 654L117 654L117 654L141 654L141 750L164 750L164 798L188 798L188 721L211 721L211 663L235 663L235 721L258 721L258 721L282 721L282 692L305 692L305 654L329 654L329 683L352 683L352 692L376 692L376 721L399 721L399 625L423 625L423 740L446 740L446 750L470 750L470 702L493 702L493 721L517 721L517 779L540 779L540 702L540 671L540 719L517 719L517 661L493 661L493 652L470 652L470 681L446 681L446 681L423 681L423 575L399 575L399 661L376 661L376 661L352 661L352 613L329 613L329 613L305 613L305 623L282 623L282 671L258 671L258 690L235 690L235 613L211 613L211 661L188 661L188 767L164 767L164 690L141 690L141 613L117 613L117 585L94 585L94 661L70 661L70 604L47 604L47 594L23 594L23 546L0 546Z" fill="#8cafcc"></path><path d="M0 644L23 644L23 721L47 721L47 692L70 692L70 740L94 740L94 692L117 692L117 711L141 711L141 798L164 798L164 836L188 836L188 779L211 779L211 702L235 702L235 769L258 769L258 750L282 750L282 740L305 740L305 702L329 702L329 721L352 721L352 721L376 721L376 779L399 779L399 683L423 683L423 788L446 788L446 788L470 788L470 750L493 750L493 769L517 769L517 817L540 817L540 750L540 700L540 777L517 777L517 719L493 719L493 700L470 700L470 748L446 748L446 738L423 738L423 623L399 623L399 719L376 719L376 690L352 690L352 681L329 681L329 652L305 652L305 690L282 690L282 719L258 719L258 719L235 719L235 661L211 661L211 719L188 719L188 796L164 796L164 748L141 748L141 652L117 652L117 652L94 652L94 700L70 700L70 633L47 633L47 661L23 661L23 604L0 604Z" fill="#93b4cd"></path><path d="M0 683L23 683L23 750L47 750L47 731L70 731L70 779L94 779L94 740L117 740L117 759L141 759L141 827L164 827L164 855L188 855L188 798L211 798L211 750L235 750L235 807L258 807L258 779L282 779L282 769L305 769L305 731L329 731L329 759L352 759L352 740L376 740L376 817L399 817L399 731L423 731L423 836L446 836L446 827L470 827L470 769L493 769L493 817L517 817L517 836L540 836L540 798L540 748L540 815L517 815L517 767L493 767L493 748L470 748L470 786L446 786L446 786L423 786L423 681L399 681L399 777L376 777L376 719L352 719L352 719L329 719L329 700L305 700L305 738L282 738L282 748L258 748L258 767L235 767L235 700L211 700L211 777L188 777L188 834L164 834L164 796L141 796L141 709L117 709L117 690L94 690L94 738L70 738L70 690L47 690L47 719L23 719L23 642L0 642Z" fill="#9bb8cf"></path><path d="M0 961L23 961L23 961L47 961L47 961L70 961L70 961L94 961L94 961L117 961L117 961L141 961L141 961L164 961L164 961L188 961L188 961L211 961L211 961L235 961L235 961L258 961L258 961L282 961L282 961L305 961L305 961L329 961L329 961L352 961L352 961L376 961L376 961L399 961L399 961L423 961L423 961L446 961L446 961L470 961L470 961L493 961L493 961L517 961L517 961L540 961L540 961L540 796L540 834L517 834L517 815L493 815L493 767L470 767L470 825L446 825L446 834L423 834L423 729L399 729L399 815L376 815L376 738L352 738L352 757L329 757L329 729L305 729L305 767L282 767L282 777L258 777L258 805L235 805L235 748L211 748L211 796L188 796L188 853L164 853L164 825L141 825L141 757L117 757L117 738L94 738L94 777L70 777L70 729L47 729L47 748L23 748L23 681L0 681Z" fill="#a2bcd0"></path></svg>