<svg id="visual" viewBox="0 0 960 540" width="960" height="540" xmlns="http://www.w3.org/2000/svg" xmlns:xlink="http://www.w3.org/1999/xlink" version="1.1"><path d="M0 28L137 28L137 66L274 66L274 44L411 44L411 77L549 77L549 82L686 82L686 55L823 55L823 44L960 44L960 50L960 0L960 0L823 0L823 0L686 0L686 0L549 0L549 0L411 0L411 0L274 0L274 0L137 0L137 0L0 0Z" fill="#6ba3d0"></path><path d="M0 174L137 174L137 131L274 131L274 168L411 168L411 206L549 206L549 141L686 141L686 141L823 141L823 87L960 87L960 141L960 48L960 42L823 42L823 53L686 53L686 80L549 80L549 75L411 75L411 42L274 42L274 64L137 64L137 26L0 26Z" fill="#79aad2"></path><path d="M0 217L137 217L137 222L274 222L274 233L411 233L411 255L549 255L549 233L686 233L686 195L823 195L823 158L960 158L960 217L960 139L960 85L823 85L823 139L686 139L686 139L549 139L549 204L411 204L411 166L274 166L274 129L137 129L137 172L0 172Z" fill="#86b1d3"></path><path d="M0 379L137 379L137 314L274 314L274 411L411 411L411 330L549 330L549 363L686 363L686 347L823 347L823 287L960 287L960 422L960 215L960 156L823 156L823 193L686 193L686 231L549 231L549 253L411 253L411 231L274 231L274 220L137 220L137 215L0 215Z" fill="#93b7d5"></path><path d="M0 411L137 411L137 379L274 379L274 449L411 449L411 357L549 357L549 428L686 428L686 422L823 422L823 341L960 341L960 455L960 420L960 285L823 285L823 345L686 345L686 361L549 361L549 328L411 328L411 409L274 409L274 312L137 312L137 377L0 377Z" fill="#a0bed6"></path><path d="M0 541L137 541L137 541L274 541L274 541L411 541L411 541L549 541L549 541L686 541L686 541L823 541L823 541L960 541L960 541L960 453L960 339L823 339L823 420L686 420L686 426L549 426L549 355L411 355L411 447L274 447L274 377L137 377L137 409L0 409Z" fill="#acc4d8"></path></svg>